<svg width="147" height="159" viewBox="0 0 147 159" fill="none" xmlns="http://www.w3.org/2000/svg">
<path d="M95.6123 109.285C92.47 112.538 89.9889 116.434 88.3857 120.756L81.7344 97.8108L81.8936 153.192L72.0518 158.862L71.832 82.3987L85.5469 74.4729L95.6123 109.285ZM38.7295 67.9856L51.9268 121.45L52.0459 75.6721L63.585 82.3401L63.3857 158.803L50.0693 151.117L34.0781 86.4133L33.9189 141.814L22.2598 135.066L22.4795 58.6028L38.7295 67.9856ZM13.1768 53.2327L12.957 129.696L0 122.209L0.219727 45.7454L13.1768 53.2327ZM146.259 97.6321C146.273 102.182 145.542 106.386 144.06 110.238C141.726 107.625 138.985 105.384 135.935 103.618L135.921 98.4934L135.897 90.2659L130.927 93.1409L130.887 82.22L146.199 73.3762L146.259 97.6321ZM106.642 101.739C103.019 103.254 99.7245 105.397 96.8916 108.031L96.7871 67.9846L106.529 62.3743L106.642 101.739ZM129.788 48.0618C135.158 44.9675 139.211 44.2685 141.986 46.0051C144.741 47.742 146.139 51.6954 146.159 57.884L146.179 65.3108L135.838 71.2795L135.817 63.094C135.817 60.3196 135.299 58.6819 134.261 58.1428C133.223 57.604 131.844 57.8436 130.128 58.8215C128.411 59.8197 127.033 61.178 126.015 62.8948C124.997 64.6115 124.478 66.8678 124.498 69.6223L124.584 99.5959C122.893 99.3294 121.16 99.1897 119.395 99.1897C117.413 99.1897 115.472 99.3644 113.587 99.6985L113.581 97.6321L113.518 76.6702C113.498 70.4816 114.855 64.9313 117.61 60.0403C120.365 55.1693 124.418 51.1761 129.788 48.0618ZM111.581 23.4045L83.252 39.8752L95.1299 46.7434L123.479 30.2727L134.12 36.4221L67.999 74.8528L57.3574 68.7043L85.6875 52.2336L73.8086 45.3655L45.4795 61.8362L35.0176 55.8069L101.14 17.3762L111.581 23.4045ZM63.9854 0.00707507C69.4752 -0.112615 74.7855 1.28555 79.916 4.26C85.0466 7.21457 87.503 10.2895 87.2637 13.4836C87.0239 16.6578 84.228 19.8118 78.8779 22.926L72.4502 26.6594L62.5869 20.9495L69.6748 16.8372C72.0702 15.4398 73.2679 14.182 73.248 13.0442C73.2478 11.9064 72.4093 10.8676 70.7725 9.90942C69.1156 8.95132 67.3186 8.49243 65.3623 8.49243C63.4059 8.49245 61.2296 9.19074 58.834 10.5881L23.1182 31.3108C20.7228 32.7081 19.5444 33.9468 19.584 35.0647C19.624 36.1826 20.4633 37.2212 22.1201 38.1594C23.777 39.1176 25.5539 39.5965 27.4902 39.6165C29.4068 39.6364 31.5828 38.9573 33.9785 37.5598L43.4219 32.0696L53.3037 37.7795L44.5195 42.8909C39.1693 46.0051 33.739 47.6218 28.249 47.7815C22.7589 47.9212 17.4486 46.5237 12.2979 43.5491C7.16718 40.5944 4.71063 37.5197 4.9502 34.3254C5.1902 31.1514 7.986 27.9972 13.3359 24.8831L47.7139 4.89868C53.0642 1.78433 58.4953 0.166787 63.9854 0.00707507Z" fill="white"/>
<path d="M119.734 158.648C134.124 158.648 145.79 146.982 145.79 132.592C145.79 118.202 134.124 106.537 119.734 106.537C105.344 106.537 93.6787 118.202 93.6787 132.592C93.6787 146.982 105.344 158.648 119.734 158.648Z" fill="#047DDA"/>
<path fill-rule="evenodd" clip-rule="evenodd" d="M120.5 150C110.85 150 103 142.15 103 132.498C103 122.85 110.85 115 120.5 115C130.15 115 138 122.85 138 132.498C138 142.15 130.15 150 120.5 150ZM120.485 119.057C113.09 119.057 107.068 125.054 107.068 132.417C107.068 139.786 113.09 145.785 120.485 145.785C127.883 145.785 133.901 139.786 133.901 132.417C133.899 125.054 127.881 119.057 120.485 119.057Z" fill="white"/>
<path fill-rule="evenodd" clip-rule="evenodd" d="M114.042 132.55L120.603 141.12L127.015 132.548H122.611V125.383C122.611 124.628 121.898 123.649 120.511 123.649C119.126 123.649 118.365 124.709 118.365 125.462V132.55H114.042Z" fill="white"/>
</svg>
