<svg width="751" height="255" viewBox="0 0 751 255" fill="none" xmlns="http://www.w3.org/2000/svg">
<path d="M25.0002 153.4H20.5002C14.1002 153.4 9.1002 152 5.5002 149.1C1.9002 146.2 0.200195 141.6 0.200195 135.4C0.200195 129.3 1.9002 124.8 5.4002 121.9C8.9002 119 13.9002 117.6 20.5002 117.6H25.0002V100C25.0002 88 28.8002 77.9 36.3002 69.9C43.8002 61.9 53.4002 57.9 65.1002 57.9C72.4002 57.9 78.1002 59.1 82.4002 61.4C88.0002 64.4 90.8002 69.2 90.8002 76C90.8002 88 84.7002 94.1 72.5002 94.1C69.4002 94.1 67.1002 95 65.7002 96.8C64.3002 98.6 63.6002 101.9 63.6002 106.7V117.6H74.2002C80.6002 117.6 85.6002 119 89.2002 121.9C92.7002 124.8 94.5002 129.3 94.5002 135.4C94.5002 141.5 92.7002 146 89.1002 149C85.5002 152 80.5002 153.5 74.2002 153.5H63.6002V231.7C63.6002 237.5 61.8002 242.3 58.3002 246.2C54.7002 250.1 50.1002 252 44.3002 252C38.7002 252 34.1002 250.1 30.4002 246.3C26.8002 242.5 25.0002 237.6 25.0002 231.7V153.4Z" fill="#82E6E5"/>
<path d="M120.2 78.1001C120.2 72.3001 122 67.5 125.5 63.6C129 59.7 133.7 57.8 139.5 57.8C145.1 57.8 149.7 59.8 153.4 63.7C157 67.7 158.8 72.4001 158.8 78.1001V231.6C158.8 237.4 157 242.2 153.5 246.1C149.9 250 145.3 251.9 139.5 251.9C133.9 251.9 129.3 250 125.6 246.2C122 242.4 120.2 237.5 120.2 231.6V78.1001Z" fill="#82E6E5"/>
<path d="M236.9 114.9C244.3 114.9 250.6 116.1 255.8 118.4C261 120.7 265.7 124.5 270 129.8C273.8 121.5 279.8 117.4 288.1 117.4C293.9 117.4 298.5 119.4 302.1 123.3C305.6 127.3 307.4 131.8 307.4 136.9V232.5C307.4 237.6 305.6 242.2 302.1 246.1C298.5 250.1 293.9 252 288.1 252C279.8 252 273.8 247.9 270 239.6C265.7 244.9 261 248.7 255.8 251C250.6 253.3 244.3 254.5 236.9 254.5C228.6 254.5 220.9 252.7 213.6 249.1C206.3 245.5 200 240.5 194.7 234.2C189.3 227.9 185.1 220.5 182 212C178.9 203.5 177.3 194.4 177.3 184.6C177.3 174.9 178.9 165.7 182 157.2C185.1 148.7 189.4 141.3 194.7 135C200.1 128.7 206.4 123.8 213.6 120.1C220.9 116.7 228.7 114.9 236.9 114.9ZM215.9 184.7C215.9 194.3 218.3 202.1 223.1 208.2C227.9 214.3 234.3 217.4 242.4 217.4C250.5 217.4 256.9 214.3 261.7 208.2C266.5 202.1 268.9 194.3 268.9 184.7C268.9 175.3 266.5 167.5 261.8 161.3C257.1 155.1 250.5 152 242.1 152C234.2 152 227.8 155.1 223 161.2C218.3 167.3 215.9 175.1 215.9 184.7Z" fill="white"/>
<path d="M415.6 209.6C414.3 209.6 412.8 209.9 411 210.6C409.3 211.3 407.2 212 404.7 213C402.2 213.9 399.4 214.7 396.3 215.4C393.2 216.1 389.7 216.4 385.9 216.4C377.5 216.4 370.9 213.3 366.2 207.1C361.5 200.9 359.1 193.1 359.1 183.7C359.1 173.8 361.6 165.9 366.5 159.9C371.5 154 378.6 151 388 151C391.8 151 395.1 151.4 398 152.2C400.9 153 404 154.2 407.3 155.7C409.6 156.9 412.3 157.4 415.5 157.4C416.8 157.4 418.1 157.3 419.3 157C419 155.7 418.9 154.3 418.9 152.9V120.7C418.6 120.5 418.3 120.4 418 120.2C413.9 118.1 409 116.6 403.5 115.5C398 114.4 392 113.9 385.6 113.9C376.2 113.9 367.5 115.7 359.5 119.2C351.5 122.8 344.6 127.6 338.8 133.8C333 140 328.5 147.3 325.3 155.8C322.1 164.3 320.5 173.6 320.5 183.7C320.5 193.6 322.1 202.8 325.3 211.4C328.5 220 333 227.4 338.8 233.6C344.6 239.8 351.4 244.7 359.3 248.2C367.2 251.7 375.9 253.5 385.3 253.5C390.3 253.5 395.5 252.9 400.9 251.8C406.3 250.6 411.3 248.9 415.9 246.6C420.4 244.3 424.2 241.5 427 238.2C429.9 234.9 431.3 231.1 431.3 226.8C431.3 222.5 429.7 218.6 426.6 215C423.6 211.4 419.9 209.6 415.6 209.6Z" fill="white"/>
<path d="M534.3 58.3001C523.5 58.3001 514.7 66.7001 514.7 77.1001V113.8H494.5V19.6C494.5 9.20005 485.7 0.800049 474.9 0.800049C464.1 0.800049 455.3 9.20005 455.3 19.6V57.4001C455.4 57.7001 455.5 58.0001 455.6 58.3001C459.5 56.3001 463.7 55.2 467.2 55.2C470.3 55.2 472.9 56.1001 474.6 57.9001C476.3 59.7001 477.1 62.2 476.9 65.2C476.5 71.2 472 78.9 466.3 83.4C463.5 85.6 460.2 87.3 456.8 88.4C461.4 92.2 464.4 97.8 464.4 104V152.8C464.4 159.7 460.8 165.8 455.4 169.5V232.7C455.4 243.1 464.2 251.5 475 251.5C485.8 251.5 494.6 243.1 494.6 232.7V151.2H531C543.6 151.2 553.8 141.4 553.8 129.4V124C553.9 123.1 554 122.3 554 121.4V77C553.9 66.7 545.1 58.3001 534.3 58.3001Z" fill="white"/>
<path d="M440.5 170C431.9 169.4 424.9 161.4 424.9 152.8V104.7C424.9 96.1 431.9 88.2 440.5 87.5C450.4 86.8 458.6 94.6 458.6 104.3V153.1C458.6 162.9 450.3 170.8 440.5 170Z" fill="white"/>
<path d="M441.5 85.5001C436.6 85.3001 432.2 75.3001 432.7 66.9001C433.2 59.3001 437.9 50.4001 442.6 50.5001C447.6 50.7001 452.2 61.1001 451.4 70.0001C450.7 77.2001 446.1 85.7001 441.5 85.5001Z" fill="#82E6E5"/>
<path d="M469.3 60.8002C466.5 57.8002 458.5 59.8002 452.8 63.8002C453.3 66.3002 453.4 68.9002 453.2 71.4002C452.7 76.5002 450.2 82.9002 446.7 86.1002C450.9 86.8002 457.4 84.3002 461.8 80.7002C468.6 75.1002 472.7 64.5002 469.3 60.8002Z" fill="#82E6E5"/>
<path d="M414.2 60.8002C417 57.8002 425 59.8002 430.7 63.8002C430.2 66.3002 430.1 68.9002 430.3 71.4002C430.8 76.5002 433.3 82.9002 436.8 86.1002C432.6 86.8002 426.1 84.3002 421.7 80.7002C414.9 75.1002 410.8 64.5002 414.2 60.8002Z" fill="#82E6E5"/>
<path d="M662.3 252.3C655.3 252.3 649.6 245.2 649.6 236.5C649.6 227.8 655.3 220.7 662.3 220.7H701.5C712.3 220.6 712.3 216.3 712.3 214.6V213.3C712.3 209.8 709 206.3 702.4 202.8L676.1 188.2C666.9 183.5 660 178.3 655.6 172.8C651.1 167.2 648.8 159.9 648.8 151.2C648.8 138.3 652.3 128.6 659.3 122.4C665.5 116.8 675 113.8 687.4 113.2V113.1H689.3H729.9C736.9 113.1 742.6 120.3 742.6 129.1C742.6 137.9 736.9 145.1 729.9 145.1H698.8C691.4 145.1 687.7 146.7 687.7 149.8V151.1C687.7 154.2 691.3 157.7 698.1 161.4H698.2L725 177.3C734.4 182.4 741.1 187.7 745 193.1C748.9 198.6 750.9 205.9 750.9 214.8C750.9 239.7 736.2 252.3 707.3 252.3H662.3Z" fill="white"/>
<path d="M613.3 115.1H611.8C601.5 115.1 593.1 122.4 593.1 131.3V138V202.1C593.1 215.6 586.1 222.3 572 222.3H568.9C562.6 222.3 560.8 221.1 558 218.7C555.3 216.3 553.9 212.3 553.9 206.6V191.6V178.6C553.9 169.6 545.5 162.4 535.2 162.4H533.7C523.4 162.4 515 169.7 515 178.6V191.7V197.2V208.3C515 222.3 519 233 527.1 240.4C535.1 247.8 547 251.6 562.7 251.6H570.1C572 251.6 573.2 251.5 574 251.3C574.3 251.2 574.7 251.1 575 251.1C577.8 250.5 581.1 249.4 584.2 247.1C588.6 243.9 590.7 239.9 591.7 237.8C591.8 237.6 592.1 237.4 592.4 237.4C592.7 237.4 593.2 237.5 593.3 237.8V237.9C594.6 245.7 602.4 251.7 611.8 251.7H613.3C623.6 251.7 632 244.4 632 235.5V233.6V136.3V131.5C631.9 122.4 623.6 115.1 613.3 115.1Z" fill="white"/>
</svg>
