<svg width="660" height="717" viewBox="0 0 660 717" fill="none" xmlns="http://www.w3.org/2000/svg">
<path d="M59.4594 240.212L58.4684 585.256L0 551.472L0.990967 206.428L59.4594 240.212Z" fill="white"/>
<path d="M286.936 371.563L286.035 716.607L225.945 681.923L153.783 389.941L153.062 639.941L100.45 609.49L101.441 264.446L174.774 306.788L234.323 548.049L234.864 341.473L286.936 371.563Z" fill="white"/>
<path d="M360.63 19.2211C383.783 32.5545 394.865 46.4283 393.783 60.8427C392.702 75.167 380.09 89.4012 355.946 103.455L326.937 120.302L282.432 94.5363L314.414 75.9778C325.225 69.6715 330.63 63.9958 330.54 58.8607C330.54 53.7256 326.757 49.0409 319.369 44.7166C311.892 40.3923 303.784 38.3202 294.955 38.3202C286.126 38.3202 276.306 41.4734 265.495 47.7797L104.324 141.293C93.5136 147.599 88.1983 153.185 88.3785 158.23C88.5587 163.275 92.3425 167.96 99.8199 172.194C107.297 176.518 115.315 178.68 124.054 178.77C132.703 178.861 142.523 175.797 153.333 169.491L195.946 144.716L240.54 170.482L200.901 193.545C176.757 207.599 152.252 214.896 127.478 215.617C102.703 216.248 78.7389 209.942 55.4957 196.518C32.3426 183.185 21.2615 169.311 22.3426 154.897C23.4237 140.572 36.0363 126.338 60.1804 112.284L215.315 22.104C239.459 8.04999 263.964 0.752709 288.739 0.031989C313.513 -0.508551 337.477 5.79775 360.63 19.2211Z" fill="white"/>
<path d="M605.224 164.356L306.846 337.779L258.828 310.031L386.665 235.707L333.062 204.716L205.224 279.041L158.017 251.833L456.395 78.4103L503.512 105.617L375.674 179.942L429.278 210.933L557.206 136.608L605.224 164.356Z" fill="white"/>
<path d="M480.72 281.473L481.711 626.517L430.99 655.797L368.828 441.383L369.549 691.292L325.135 716.878L324.144 371.833L386.035 336.067L437.297 513.364L436.756 306.788L480.72 281.473Z" fill="white"/>
<path d="M585.675 216.878C609.909 202.915 628.197 199.761 640.72 207.599C653.152 215.437 659.458 233.275 659.549 261.203L659.639 294.716L612.972 321.653L612.882 284.716C612.882 272.194 610.54 264.806 605.855 262.374C601.17 259.941 594.954 261.023 587.206 265.437C579.459 269.941 573.242 276.068 568.648 283.815C564.053 291.563 561.711 301.743 561.801 314.176L562.341 500.482C562.341 513.004 564.684 520.301 569.369 522.554C574.053 524.806 580.269 523.725 588.017 519.22C595.765 514.716 601.981 508.68 606.576 501.112C611.17 493.545 613.513 483.455 613.423 470.932L613.242 407.329L590.81 420.302L590.63 371.022L659.729 331.113L659.999 440.572C660.089 468.5 653.963 493.545 641.531 515.617C629.188 537.779 610.9 555.797 586.666 569.761C562.432 583.725 544.143 586.878 531.621 579.04C519.188 571.292 512.882 553.364 512.792 525.437L512.251 345.977C512.161 318.049 518.287 293.004 530.72 270.932C543.152 248.95 561.441 230.932 585.675 216.878Z" fill="white"/>
</svg>
