<svg width="2524" height="1085" viewBox="0 0 2524 1085" fill="none" xmlns="http://www.w3.org/2000/svg">
<path d="M1092.63 1058.78C964.431 1050.04 903.244 994.692 897.417 991.779C1214.43 1103.64 1464.61 879.136 1550.08 752.898C1856.99 755.812 2424.19 752.898 2424.19 752.898C2424.19 752.898 1845.34 781.059 1579.22 799.509C1476.66 944.003 1350.01 1007.32 1299.51 1020.91C1271.34 1032.56 1220.84 1067.52 1092.63 1058.78Z" fill="#E62222"/>
<path fill-rule="evenodd" clip-rule="evenodd" d="M2333.17 676.459H2404.67C2413.25 668.212 2433.28 621.477 2378.93 615.979C2324.59 615.979 2295.99 654.466 2293.13 679.208C2290.27 742.437 2401.81 723.193 2398.95 690.204C2384.65 695.702 2381.85 696.822 2361.83 696.822C2333.23 696.822 2324.59 687.455 2333.17 676.459ZM2338.89 659.964C2341.75 646.219 2376.07 624.226 2381.79 659.964H2338.89Z" fill="#E62222"/>
<path d="M2293.07 622.846C2288.99 631.35 2280.82 651.195 2280.82 651.195C2237.94 637.02 2222.63 656.865 2219.56 673.874C2222.63 690.884 2237.94 690.884 2265.51 685.214L2253.26 713.563C2216.5 716.398 2173.62 719.233 2176.68 679.544C2188.93 611.506 2259.38 608.671 2293.07 622.846Z" fill="#E62222"/>
<path d="M2153.43 605.653C2146.88 601.034 2145.97 591.04 2151.4 583.329C2156.84 575.619 2166.55 573.112 2173.11 577.731C2179.67 582.349 2180.57 592.344 2175.14 600.054C2169.71 607.764 2159.99 610.271 2153.43 605.653Z" fill="#E62222"/>
<path d="M2094.94 715.027L2135.73 615.979H2173.61L2135.73 715.027H2094.94Z" fill="#E62222"/>
<path d="M1995.88 715.027C1993.93 683.953 1990.05 618.31 1990.05 615.979H2030.84V668.416L2077.46 615.979H2115.34L2030.84 715.027H1995.88Z" fill="#E62222"/>
<path d="M1844.37 715.027L1882.24 615.979H1914.29V627.632C1947.4 605.107 1970.63 619.019 1969.65 624.719C1967.68 636.203 1954.11 648.024 1943.43 653.851C1908.47 628.215 1888.07 683.953 1882.24 715.027H1844.37Z" fill="#E62222"/>
<path fill-rule="evenodd" clip-rule="evenodd" d="M1762.84 674.243H1835.68C1844.42 665.504 1864.82 615.98 1809.46 610.154C1754.1 610.153 1724.96 650.938 1722.05 677.157C1719.13 744.159 1832.77 723.767 1829.85 688.809C1815.28 694.635 1812.43 695.822 1792.03 695.822C1762.89 695.822 1754.1 685.896 1762.84 674.243ZM1768.66 656.764C1771.58 642.199 1806.54 618.893 1812.37 656.764H1768.66Z" fill="#E62222"/>
<path d="M1654.98 675.297C1613.4 654.513 1629.88 631.828 1652.06 618.893C1669.54 608.697 1684.11 607.24 1710.34 613.066C1739.47 618.893 1713.25 636.372 1707.42 639.285C1678.29 627.632 1660.8 642.198 1678.29 653.851C1713.25 671.33 1701.59 697.548 1684.11 709.201C1673.43 715.027 1640.41 726.68 1608.36 712.114C1600.77 708.667 1596.7 685.978 1614.18 681.123C1625.84 710.255 1678.29 686.95 1654.98 675.297Z" fill="#E62222"/>
<path d="M2106.6 557.716C2101.94 557.716 2199.84 318.836 2249.37 199.396H2374.66L2301.82 362.533C2280.84 402.152 2300.84 396.52 2313.47 388.752L2392.14 313.009H2523.26L2412.54 412.057C2392.14 426.623 2392.14 438.276 2392.14 447.015L2424.19 557.716H2295.99C2281.42 441.189 2266.85 470.321 2261.02 470.321C2256.36 470.321 2237.71 528.584 2228.97 557.716H2106.6Z" fill="#E0E0E0"/>
<path d="M2156.13 318.835L2121.17 403.317C2106.6 388.751 2062.89 385.838 2027.93 394.578C1992.96 403.317 1963.83 464.494 2010.45 473.233C2047.74 480.225 2088.15 470.32 2103.68 464.494L2068.72 554.802C1998.79 571.116 1937.6 569.368 1908.47 560.628C1868.65 544.12 1810.57 486.051 1896.81 385.838C1983.06 285.625 2105.63 299.414 2156.13 318.835Z" fill="#E0E0E0"/>
<path d="M1654.98 557.716L1756.96 310.096H1873.5L1774.44 557.716H1654.98Z" fill="#E0E0E0"/>
<path d="M1890.98 176.09C1803.57 158.611 1736.56 257.659 1815.23 283.878C1890.98 298.444 1955.09 199.395 1890.98 176.09Z" fill="#E0E0E0"/>
<path d="M1532.6 310.096H1413.14C1350.2 452.259 1337.38 484.886 1343.21 522.757C1386.92 607.239 1491.81 543.15 1503.46 537.323C1512.79 532.662 1517.06 535.381 1518.03 537.323L1503.46 554.802H1611.27L1707.42 310.096H1585.05L1518.03 476.147C1494.72 481.973 1477.24 479.06 1471.41 470.32L1532.6 310.096Z" fill="#E0E0E0"/>
<path d="M1392.74 257.659C1343.79 71.2158 1183.93 36.2577 1110.12 42.0841C1473.74 -93.0871 1640.41 129.479 1678.29 257.659H1392.74Z" fill="#E0E0E0"/>
<path d="M1296.59 601.413C1174.22 799.509 1002.31 901.47 775.042 878.165C905.575 1041.3 1153.82 984.981 1261.63 936.428L1331.56 1085L1497.64 956.82L1424.79 828.641C1527.36 744.741 1580.19 642.198 1593.79 601.413H1296.59Z" fill="#E0E0E0"/>
<path d="M865.366 461.581L734.25 359.62C935.295 42.084 1180.04 42.0841 1255.8 135.306C1083.31 135.306 923.64 352.823 865.366 461.581Z" fill="#E0E0E0"/>
<path d="M742.991 444.102C469.104 117.826 142.771 289.704 0 429.536C527.378 391.664 437.054 636.371 786.696 735.419C620.616 735.419 556.515 636.371 425.399 575.194C290.204 530.914 211.728 566.455 189.39 589.76C393.348 563.542 562.342 811.161 786.696 831.554C1086.81 831.554 1255.8 575.194 1255.8 575.194C1255.8 575.194 1192.15 607.228 1147.99 615.979C1064.79 632.469 1004.64 620.057 932.381 589.76C860.121 559.463 776.013 480.031 742.991 444.102Z" fill="#E62222"/>
</svg>
