<svg width="745" height="745" viewBox="0 0 745 745" fill="none" xmlns="http://www.w3.org/2000/svg">
<g clip-path="url(#clip0_33_0)">
<path d="M160.622 20.264L11.92 106.982C4.47 111.154 0 119.2 0 127.544V338.826C0 347.468 4.47 355.216 12.218 359.686L188.634 459.814C196.084 463.986 200.852 472.032 200.852 480.674V634.74C200.852 643.382 205.62 651.428 213.07 655.6L370.414 744.106C372.202 745 373.99 745.596 375.778 745.596C377.566 745.596 379.354 745 381.142 744.106L572.756 638.614C580.504 634.442 584.974 626.396 584.974 617.754V417.2C584.974 408.856 589.444 401.108 596.596 396.638L733.974 313.794C741.126 309.622 745.596 301.874 745.596 293.232V127.842C745.596 119.2 740.828 111.154 733.378 106.982L544.446 2.682C541.168 0.894 537.592 0 533.718 0C529.844 0 526.268 0.894 522.99 2.98L350.746 101.32C343.296 105.492 334.356 105.492 326.906 101.32L186.846 20.264C183.27 18.178 179.098 16.986 174.926 16.986H173.436C168.37 16.986 164.198 18.178 160.622 20.264Z" fill="url(#paint0_linear_33_0)"/>
<path d="M407.068 221.712V184.76L212.176 295.914V335.548L407.068 221.712Z" fill="white"/>
<path d="M22.9459 327.502V284.292L412.73 500.044L377.864 520.308L22.9459 327.502Z" fill="white"/>
<path d="M22.9459 244.658V204.428L189.23 295.914V335.548L22.9459 244.658Z" fill="white"/>
<path d="M22.9459 165.092V125.458L189.23 216.348V255.982L22.9459 165.092Z" fill="white"/>
<path d="M377.864 727.716V545.34L412.73 526.268V710.432L377.864 727.716Z" fill="white"/>
<path d="M309.324 321.244L407.068 267.008V380.844L309.324 321.244Z" fill="white"/>
<path d="M212.176 255.982V216.348L541.764 28.31L576.63 47.382L212.176 255.982Z" fill="white"/>
<path d="M483.952 178.204L449.384 159.132L609.41 65.56L645.468 85.526L483.952 178.204Z" fill="white"/>
<path d="M549.214 214.262L514.646 195.19L674.97 101.618L711.028 121.584L549.214 214.262Z" fill="white"/>
<path d="M269.69 343.296L234.824 362.666L449.086 483.356L484.25 463.688L269.69 343.296Z" fill="white"/>
<path d="M449.086 409.154V181.482L484.25 202.044V428.524L449.086 409.154Z" fill="white"/>
<path d="M449.086 689.274V507.196L484.25 486.634V670.5L449.086 689.274Z" fill="white"/>
<path d="M514.646 652.024V218.732L549.214 237.804V632.952L514.646 652.024Z" fill="white"/>
</g>
<defs>
<linearGradient id="paint0_linear_33_0" x1="0" y1="372.5" x2="745" y2="372.5" gradientUnits="userSpaceOnUse">
<stop stop-color="#1DA1F2"/>
<stop offset="1" stop-color="#009FFC"/>
</linearGradient>
<clipPath id="clip0_33_0">
<rect width="745" height="745" fill="white"/>
</clipPath>
</defs>
</svg>
